<?xml version="1.0" encoding="UTF-8" standalone="no"?>
<svg
   xmlns:dc="http://purl.org/dc/elements/1.1/"
   xmlns:cc="http://creativecommons.org/ns#"
   xmlns:rdf="http://www.w3.org/1999/02/22-rdf-syntax-ns#"
   xmlns:svg="http://www.w3.org/2000/svg"
   xmlns="http://www.w3.org/2000/svg"
   xmlns:sodipodi="http://sodipodi.sourceforge.net/DTD/sodipodi-0.dtd"
   xmlns:inkscape="http://www.inkscape.org/namespaces/inkscape"
   inkscape:version="1.0 (4035a4fb49, 2020-05-01)"
   sodipodi:docname="devus_text.svg"
   viewBox="0 0 333 78"
   height="78"
   width="333"
   id="svg2"
   version="1.1">
  <metadata
     id="metadata8">
    <rdf:RDF>
      <cc:Work
         rdf:about="">
        <dc:format>image/svg+xml</dc:format>
        <dc:type
           rdf:resource="http://purl.org/dc/dcmitype/StillImage" />
        <dc:title></dc:title>
      </cc:Work>
    </rdf:RDF>
  </metadata>
  <defs
     id="defs6" />
  <sodipodi:namedview
     inkscape:current-layer="g10"
     inkscape:window-maximized="1"
     inkscape:window-y="-9"
     inkscape:window-x="-9"
     inkscape:cy="39"
     inkscape:cx="166.5"
     inkscape:zoom="3.6606607"
     showgrid="false"
     id="namedview4"
     inkscape:window-height="1001"
     inkscape:window-width="1920"
     inkscape:pageshadow="2"
     inkscape:pageopacity="0"
     guidetolerance="10"
     gridtolerance="10"
     objecttolerance="10"
     borderopacity="1"
     bordercolor="#666666"
     pagecolor="#ffffff" />
  <g
     id="g10"
     inkscape:label="Image"
     inkscape:groupmode="layer">
    <path
       id="path14"
       d="M 287.74592,76.914329 C 279.14768,74.887876 268.60021,67.572167 262.86794,59.659001 261.29057,57.481508 260,55.355913 260,54.935456 c 0,-0.420457 2.01546,-1.890928 4.4788,-3.267715 l 4.4788,-2.503248 6.79551,6.795511 c 5.48749,5.487496 7.90633,7.145667 12.56656,8.614674 11.54457,3.639104 22.52237,-1.251181 28.51489,-12.702531 L 320.16912,45.5 l -32.21214,-0.264021 -32.21214,-0.264022 0.67462,-5.962894 c 2.50867,-22.173633 16.0444,-36.5204 36.4701,-38.65530807 10.23809,-1.07009273 21.97955,3.71887847 30.263,12.34332707 3.73333,3.887025 8.84744,11.002104 8.84744,12.30914 0,0.39992 -2.33808,1.698791 -5.19574,2.886379 -4.85298,2.01681 -5.25924,2.045786 -6.1583,0.439242 C 318.67781,24.814965 311.48021,17.779689 307.40997,15.394372 295.84253,8.6154021 279.36628,13.422817 272.77538,25.5 c -1.50076,2.75 -2.73917,5.5625 -2.75202,6.25 C 270.00516,32.724039 276.95421,33 301.5,33 H 333 l -0.0148,3.75 c -0.0228,5.789145 -2.75275,16.052223 -5.71995,21.503951 -7.80294,14.336559 -24.47109,22.206984 -39.51935,18.660378 z M 141.6587,43.839707 c -5.93554,-18.208581 -10.42443,-33.436668 -9.9753,-33.8401935 0.90312,-0.811417 10.54127,-4.1397069 10.8495,-3.746598 0.10655,0.1358965 2.552,7.3628235 5.43433,16.0598385 2.88233,8.697014 5.3653,15.672014 5.51772,15.5 0.15241,-0.172015 2.6446,-6.387754 5.5382,-13.812754 2.89359,-7.425 5.88439,-14.7388666 6.64622,-16.2530369 l 1.38513,-2.753037 4.90198,2.4840213 c 2.69609,1.3662117 5.12288,2.8414486 5.39288,3.2783046 0.26999,0.436856 -2.56124,8.432913 -6.29162,17.769016 C 167.32736,37.861371 161.90875,52.025 159.01638,60 c -2.89236,7.975 -5.55291,15.050399 -5.91232,15.723108 -0.3594,0.672709 -5.50982,-13.674821 -11.44536,-31.883401 z M 76.920478,73.713189 C 66.746469,69.425614 61.104699,63.838955 56.258152,53.252701 52.857437,45.824562 52.506004,34.179344 55.443588,26.261001 59.803349,14.509142 70.125846,5.3286559 82.338494,2.3415655 98.28043,-1.5576713 116.29232,5.8992036 123.10671,19.2195 125.84645,24.574964 128,33.592915 128,39.710099 V 45 H 96.93261 65.865225 l 0.681408,2.25 c 3.007083,9.929339 13.218091,17.044118 24.461423,17.044118 10.113284,0 15.646314,-3.019026 21.991944,-11.999625 l 1.5,-2.122862 5.2098,2.032829 5.20979,2.03283 -2.00311,3.926415 c -3.13874,6.152448 -8.59191,11.530399 -14.7434,14.540042 -4.81721,2.356844 -7.12078,2.807253 -15.66054,3.062049 -8.678109,0.258924 -10.756156,-0.01464 -15.592062,-2.052607 z M 114.62294,29.864701 C 111.58637,14.681826 89.914837,8.035104 76.093133,18.047495 71.978025,21.028463 67.737794,26.660579 66.529841,30.75 L 65.865225,33 H 90.557612 115.25 Z M 0,38.5 V 2 h 18.908231 18.90823 L 41.408231,8.5344229 45,15.068846 V 45.034423 75 H 22.5 0 Z m 32,2.081787 c 0,-12.330016 -0.273145,-23.130016 -0.606989,-24 C 30.902481,15.303486 29.079784,15 21.893011,15 H 13 V 39 63 H 22.5 32 Z M 184,40 V 5 h 6.5 6.5 v 29 29 h 19 19 V 34 5 h 6.5 6.5 v 35 35 h -32 -32 z"
       style="fill:#BC2F95" />
  </g>
</svg>
