<?xml version="1.0" encoding="UTF-8" standalone="no"?>
<svg
   xmlns:dc="http://purl.org/dc/elements/1.1/"
   xmlns:cc="http://creativecommons.org/ns#"
   xmlns:rdf="http://www.w3.org/1999/02/22-rdf-syntax-ns#"
   xmlns:svg="http://www.w3.org/2000/svg"
   xmlns="http://www.w3.org/2000/svg"
   xmlns:sodipodi="http://sodipodi.sourceforge.net/DTD/sodipodi-0.dtd"
   xmlns:inkscape="http://www.inkscape.org/namespaces/inkscape"
   sodipodi:docname="github.svg"
   inkscape:version="1.0 (4035a4fb49, 2020-05-01)"
   id="svg8"
   version="1.1"
   viewBox="0 0 210 297"
   height="297mm"
   width="210mm">
  <defs
     id="defs2" />
  <sodipodi:namedview
     inkscape:window-maximized="0"
     inkscape:window-y="0"
     inkscape:window-x="32"
     inkscape:window-height="1030"
     inkscape:window-width="1424"
     showgrid="false"
     inkscape:document-rotation="0"
     inkscape:current-layer="layer1"
     inkscape:document-units="mm"
     inkscape:cy="560.35833"
     inkscape:cx="399.66272"
     inkscape:zoom="0.35"
     inkscape:pageshadow="2"
     inkscape:pageopacity="0.0"
     borderopacity="1.0"
     bordercolor="#666666"
     pagecolor="#ffffff"
     id="base" />
  <metadata
     id="metadata5">
    <rdf:RDF>
      <cc:Work
         rdf:about="">
        <dc:format>image/svg+xml</dc:format>
        <dc:type
           rdf:resource="http://purl.org/dc/dcmitype/StillImage" />
        <dc:title></dc:title>
      </cc:Work>
    </rdf:RDF>
  </metadata>
  <g
     id="layer1"
     inkscape:groupmode="layer"
     inkscape:label="Layer 1">
    <path
       id="path863"
       d="m 90.770178,225.3055 c -1.87292,-0.49023 -6.48659,-2.47352 -9.58089,-4.11854 -12.88864,-6.85201 -23.846868,-18.85885 -29.477477,-32.29825 -3.743781,-8.93582 -5.288729,-16.71551 -5.294609,-26.66132 -0.0055,-9.25802 1.19857,-16.07307 4.242259,-24.0118 8.211307,-21.4172 27.033117,-36.32409 50.223319,-39.776903 13.74042,-2.045822 28.09423,0.161521 40.49923,6.228013 15.38196,7.52233 27.23519,20.78448 32.57848,36.45086 6.62036,19.41071 3.6984,41.6974 -7.71083,58.81295 -7.55933,11.34013 -18.36482,20.01532 -30.61079,24.57588 -2.77413,1.03313 -4.29047,1.18587 -5.51032,0.55506 -1.59124,-0.82287 -1.57839,-0.70223 -1.58343,-14.8652 -0.005,-14.32184 -0.0762,-15.10591 -1.6757,-18.47397 -0.48933,-1.03038 -1.27046,-2.3071 -1.73586,-2.83716 l -0.84617,-0.96373 0.87439,-0.14011 c 0.48092,-0.0771 2.24361,-0.32749 3.9171,-0.5565 8.78775,-1.20261 14.11421,-3.25237 18.01584,-6.93297 4.15121,-3.91603 6.41783,-9.20826 7.15158,-16.69789 0.83001,-8.47221 -0.42705,-13.24772 -4.89447,-18.59377 l -1.63374,-1.95505 0.49091,-1.71979 c 1.1125,-3.8974 0.81064,-10.43362 -0.67311,-14.57496 l -0.60797,-1.69692 -2.1115,0.0233 c -3.2448,0.0357 -6.83326,1.46113 -12.92058,5.13229 l -3.13617,1.89137 -4.00758,-0.80016 c -9.04333,-1.80562 -18.30922,-1.72397 -26.553272,0.23398 -1.22905,0.2919 -2.39099,0.53073 -2.58208,0.53073 -0.19109,0 -1.40208,-0.66559 -2.69109,-1.47908 -5.38032,-3.39553 -10.14686,-5.37415 -13.47328,-5.59285 l -2.13379,-0.14029 -0.43709,1.15871 c -1.82623,4.84132 -2.16186,11.08975 -0.83535,15.55205 0.41147,1.38416 0.40733,1.4502 -0.13253,2.11666 -4.39669,5.42777 -5.29416,7.76469 -5.49716,14.31395 -0.16364,5.27988 0.37246,9.5931 1.68253,13.53684 1.16824,3.5168 2.37142,5.61025 4.59239,7.99049 3.92838,4.21006 9.32502,6.48772 18.25625,7.70506 1.67349,0.2281 3.42569,0.47581 3.89377,0.55046 l 0.85107,0.13573 -1.15367,1.68511 c -1.21282,1.7715 -2.10638,3.86339 -2.56629,6.00789 -0.15124,0.7052 -0.29488,1.283 -0.3192,1.28402 -0.0243,0.001 -0.93719,0.30839 -2.02859,0.68306 -3.81101,1.30827 -8.33629,1.13098 -11.43105,-0.44785 -1.64812,-0.84081 -4.00556,-3.22053 -5.5032,-5.55521 -1.64474,-2.56401 -3.50445,-4.41695 -5.48585,-5.46588 -3.05111,-1.61523 -6.30489,-2.1252 -7.481342,-1.17257 -0.565244,0.45771 -0.572719,0.51477 -0.169568,1.29438 0.417045,0.80647 1.36947,1.63949 3.53815,3.09456 1.74256,1.16917 3.6587,3.9051 5.79689,8.27699 1.63373,3.34044 2.1881,4.21772 3.29312,5.21122 2.97052,2.67075 6.47015,3.72245 12.41576,3.73114 2.11006,0.003 4.50332,-0.0827 5.31836,-0.19051 l 1.4819,-0.19611 0.17175,2.41957 c 0.32501,4.57887 0.205,14.18194 -0.18903,15.12499 -0.67762,1.62176 -2.34126,2.20202 -4.61042,1.60807 z m -3.2493,-24.07425 c -0.5586,-0.67308 0.0248,-1.30074 1.20903,-1.30074 1.27228,0 1.87117,0.7464 1.07391,1.33841 -0.67945,0.50455 -1.84895,0.48525 -2.28294,-0.0377 z m 5.19721,-0.52536 c -0.88763,-0.88763 0.73098,-2.09724 1.94031,-1.45003 0.71692,0.38369 0.7039,0.93639 -0.0342,1.4534 -0.74847,0.52425 -1.37958,0.52313 -1.90608,-0.003 z m -10.3008,-0.1859 c -0.27049,-0.19793 -0.44908,-0.57669 -0.39688,-0.84169 0.23971,-1.21677 2.47617,-0.86244 2.47617,0.39232 0,0.53259 -0.147,0.66805 -0.79375,0.73144 -0.43656,0.0428 -1.01505,-0.0841 -1.28554,-0.28207 z m -3.60925,-2.25048 c -1.23814,-0.39883 -1.7246,-1.67728 -0.82203,-2.16032 0.38439,-0.20572 0.66131,-0.14188 1.19063,0.27447 1.09503,0.86136 0.81996,2.26871 -0.3686,1.88585 z m -3.96875,-4.29212 c -0.62471,-0.62471 -0.67342,-1.13841 -0.1492,-1.57347 0.52052,-0.432 1.41571,0.066 1.62619,0.90461 0.30751,1.2252 -0.53784,1.60801 -1.47699,0.66886 z m -2.49464,-3.59078 c -0.46589,-0.46588 -0.5515,-1.3212 -0.15666,-1.56522 0.39546,-0.24441 1.27067,0.32401 1.47107,0.95541 0.28756,0.90603 -0.60438,1.31984 -1.31441,0.60981 z m -3.05199,-2.87993 c -0.38794,-0.46744 -0.14611,-0.93763 0.48224,-0.93763 0.54353,0 1.09564,0.49332 1.09564,0.97896 0,0.46768 -1.18112,0.43674 -1.57788,-0.0413 z"
       style="fill:#4B20E7;stroke-width:0.264583" />
  </g>
</svg>
