<?xml version="1.0" encoding="UTF-8" standalone="no"?>
<svg
   xmlns:dc="http://purl.org/dc/elements/1.1/"
   xmlns:cc="http://creativecommons.org/ns#"
   xmlns:rdf="http://www.w3.org/1999/02/22-rdf-syntax-ns#"
   xmlns:svg="http://www.w3.org/2000/svg"
   xmlns="http://www.w3.org/2000/svg"
   xmlns:sodipodi="http://sodipodi.sourceforge.net/DTD/sodipodi-0.dtd"
   xmlns:inkscape="http://www.inkscape.org/namespaces/inkscape"
   sodipodi:docname="twitter.svg"
   inkscape:version="1.0 (4035a4fb49, 2020-05-01)"
   id="svg8"
   version="1.1"
   viewBox="0 0 210 297"
   height="297mm"
   width="210mm">
  <defs
     id="defs2" />
  <sodipodi:namedview
     inkscape:window-maximized="0"
     inkscape:window-y="0"
     inkscape:window-x="32"
     inkscape:window-height="1030"
     inkscape:window-width="1424"
     showgrid="false"
     inkscape:document-rotation="0"
     inkscape:current-layer="layer1"
     inkscape:document-units="mm"
     inkscape:cy="560.35833"
     inkscape:cx="399.66272"
     inkscape:zoom="0.35"
     inkscape:pageshadow="2"
     inkscape:pageopacity="0.0"
     borderopacity="1.0"
     bordercolor="#666666"
     pagecolor="#ffffff"
     id="base" />
  <metadata
     id="metadata5">
    <rdf:RDF>
      <cc:Work
         rdf:about="">
        <dc:format>image/svg+xml</dc:format>
        <dc:type
           rdf:resource="http://purl.org/dc/dcmitype/StillImage" />
        <dc:title></dc:title>
      </cc:Work>
    </rdf:RDF>
  </metadata>
  <g
     id="layer1"
     inkscape:groupmode="layer"
     inkscape:label="Layer 1">
    <path
       id="path968"
       d="m 74.555803,205.97496 c -9.346567,-0.74523 -16.508727,-2.32194 -24.077082,-5.30042 -3.676067,-1.44669 -9.587328,-4.3377 -12.218949,-5.9759 l -1.371032,-0.85347 6.133532,-0.002 c 4.64813,-10e-4 6.811972,-0.11577 8.934947,-0.47262 8.651809,-1.45416 16.791838,-4.77684 23.656918,-9.6564 l 2.116666,-1.50449 -1.938416,-0.19646 c -9.708346,-0.98397 -18.077083,-6.678 -22.259056,-15.14492 -2.035574,-4.12126 -2.360192,-3.71492 2.967815,-3.71492 2.866277,0 5.135097,-0.13171 6.106271,-0.35448 l 1.545365,-0.35447 -2.73599,-0.91657 c -9.326984,-3.1246 -16.01856,-10.18977 -18.379474,-19.40561 -0.59568,-2.32524 -1.155647,-7.147 -0.830005,-7.147 0.07821,0 0.899714,0.35162 1.825557,0.78139 2.254599,1.04655 5.988798,2.09738 8.353518,2.35074 1.060835,0.11367 1.921945,0.14004 1.913577,0.0586 -0.0084,-0.0814 -0.794844,-0.74335 -1.747725,-1.47096 -2.893036,-2.20907 -5.970506,-6.14372 -7.652273,-9.78368 -3.253103,-7.04092 -3.396698,-15.51227 -0.38382,-22.64337 0.457493,-1.08283 1.00344,-2.19918 1.213216,-2.48078 0.365095,-0.4901 0.422693,-0.46181 1.346483,0.66146 0.53079,0.6454 2.763735,2.96307 4.962099,5.15038 12.778134,12.71385 29.490976,20.54607 47.725444,22.36579 1.785951,0.17823 3.301401,0.26982 3.367681,0.20355 0.0663,-0.0663 0.005,-0.82756 -0.13678,-1.69172 -0.14151,-0.86417 -0.25642,-2.99996 -0.25535,-4.74621 0.004,-7.36157 2.48753,-13.56781 7.56146,-18.89965 4.93041,-5.181017 11.21491,-8.150427 18.27944,-8.636987 7.45758,-0.51363 15.25008,2.24566 20.54334,7.274307 l 1.54237,1.46527 3.27844,-0.83477 c 3.77741,-0.96182 8.53674,-2.78343 11.72236,-4.486677 1.21581,-0.65005 2.26587,-1.1266 2.33348,-1.05899 0.24266,0.24267 -1.52407,4.051017 -2.8074,6.051597 -1.61537,2.51819 -5.00408,6.07248 -7.13559,7.48423 -0.87885,0.58209 -1.60118,1.13114 -1.6052,1.22012 -0.009,0.19616 3.39879,-0.3425 5.94583,-0.93988 2.28847,-0.53674 5.25133,-1.4532 7.61048,-2.35406 2.1856,-0.83457 2.17695,-0.80484 -0.8558,2.94185 -2.41728,2.98634 -5.87931,6.45877 -8.82393,8.85044 l -2.06924,1.68068 -0.0962,4.48688 c -0.33897,15.81607 -4.98612,30.60535 -13.75596,43.77751 -10.18177,15.29287 -24.25811,25.77781 -41.67293,31.0406 -8.318696,2.51393 -20.005042,3.83356 -28.178127,3.1819 z"
       style="fill:#4B20E7;stroke-width:0.264583" />
  </g>
</svg>
