<?xml version="1.0" encoding="UTF-8" standalone="no"?>
<svg
   xmlns:dc="http://purl.org/dc/elements/1.1/"
   xmlns:cc="http://creativecommons.org/ns#"
   xmlns:rdf="http://www.w3.org/1999/02/22-rdf-syntax-ns#"
   xmlns:svg="http://www.w3.org/2000/svg"
   xmlns="http://www.w3.org/2000/svg"
   xmlns:sodipodi="http://sodipodi.sourceforge.net/DTD/sodipodi-0.dtd"
   xmlns:inkscape="http://www.inkscape.org/namespaces/inkscape"
   width="135.46327mm"
   height="101.57565mm"
   viewBox="0 0 135.46327 101.57565"
   version="1.1"
   id="svg8"
   inkscape:version="1.0 (4035a4fb49, 2020-05-01)"
   sodipodi:docname="email.svg">
  <defs
     id="defs2" />
  <sodipodi:namedview
     id="base"
     pagecolor="#ffffff"
     bordercolor="#666666"
     borderopacity="1.0"
     inkscape:pageopacity="0.0"
     inkscape:pageshadow="2"
     inkscape:zoom="0.35"
     inkscape:cx="247.42843"
     inkscape:cy="211.98547"
     inkscape:document-units="mm"
     inkscape:current-layer="layer1"
     inkscape:document-rotation="0"
     showgrid="false"
     inkscape:window-width="1424"
     inkscape:window-height="1030"
     inkscape:window-x="128"
     inkscape:window-y="0"
     inkscape:window-maximized="0" />
  <metadata
     id="metadata5">
    <rdf:RDF>
      <cc:Work
         rdf:about="">
        <dc:format>image/svg+xml</dc:format>
        <dc:type
           rdf:resource="http://purl.org/dc/dcmitype/StillImage" />
        <dc:title />
      </cc:Work>
    </rdf:RDF>
  </metadata>
  <g
     transform="translate(-40.367894,-92.078843)"
     inkscape:label="Layer 1"
     inkscape:groupmode="layer"
     id="layer1">
    <path
       style="fill:#000000;stroke-width:0.264583"
       d="m 50.097327,193.26357 c -2.183887,-0.52939 -3.901915,-1.48202 -5.737323,-3.18128 -1.818552,-1.68366 -3.287776,-4.3227 -3.727847,-6.69601 -0.165256,-0.89123 -0.264263,-11.85412 -0.264263,-29.2616 0,-26.63145 0.02094,-27.85537 0.483854,-28.2743 0.26612,-0.24083 0.756958,-0.43788 1.09075,-0.43788 0.374178,0 2.953314,1.75902 6.726041,4.5873 6.635034,4.97402 15.112344,11.20944 26.589274,19.55753 4.02122,2.92495 9.39491,6.88752 11.94154,8.80571 5.61241,4.22743 7.74365,5.62346 11.19097,7.33047 9.528347,4.71818 16.752757,3.14686 29.389777,-6.3923 2.2009,-1.66136 9.03241,-6.69145 15.18114,-11.17797 12.70415,-9.26978 24.42148,-17.93809 28.08927,-20.78006 2.63743,-2.04359 3.53577,-2.34263 4.34646,-1.44683 0.40168,0.44385 0.43756,2.79003 0.43397,28.37657 -0.004,30.22159 0.0227,29.61408 -1.44237,32.5053 -0.36097,0.71234 -1.32686,2.01944 -2.14643,2.90467 -1.68366,1.81855 -4.3227,3.28777 -6.69601,3.72784 -0.92283,0.17112 -21.25335,0.2565 -57.67916,0.24222 -47.033477,-0.0184 -56.502667,-0.0823 -57.769643,-0.38938 z M 105.45569,159.3851 c -3.18977,-0.85137 -6.569647,-2.8317 -12.491367,-7.31888 -1.84976,-1.40165 -8.87449,-6.56768 -15.6105,-11.48005 -23.07297,-16.82642 -34.190996,-25.24547 -35.606495,-26.96271 -1.092967,-1.32596 -1.379434,-2.68584 -1.379434,-6.54826 0,-4.08876 0.279137,-5.62812 1.455567,-8.027016 1.056844,-2.15504 3.316382,-4.45016 5.441212,-5.5269 2.9906,-1.51545 -0.265659,-1.43812 60.734587,-1.44237 36.25859,-0.003 56.62611,0.0896 57.54687,0.26035 4.83797,0.89708 9.09544,5.15751 10.01866,10.025596 0.35734,1.88426 0.34309,7.82052 -0.022,9.15702 -0.159,0.58208 -0.58655,1.45241 -0.95011,1.93407 -1.35857,1.79985 -11.93042,9.81867 -36.85785,27.95693 -5.16598,3.75899 -11.2445,8.23251 -13.50781,9.94115 -6.92335,5.22663 -10.21177,7.17222 -13.60142,8.04723 -1.92543,0.49703 -3.26286,0.49285 -5.16993,-0.0162 z"
       id="path847" />
  </g>
</svg>
