<?xml version="1.0" encoding="UTF-8" standalone="no"?>
<svg
   xmlns:dc="http://purl.org/dc/elements/1.1/"
   xmlns:cc="http://creativecommons.org/ns#"
   xmlns:rdf="http://www.w3.org/1999/02/22-rdf-syntax-ns#"
   xmlns:svg="http://www.w3.org/2000/svg"
   xmlns="http://www.w3.org/2000/svg"
   xmlns:sodipodi="http://sodipodi.sourceforge.net/DTD/sodipodi-0.dtd"
   xmlns:inkscape="http://www.inkscape.org/namespaces/inkscape"
   width="72.49559mm"
   height="135.34564mm"
   viewBox="0 0 72.49559 135.34564"
   version="1.1"
   id="svg8"
   inkscape:version="1.0 (4035a4fb49, 2020-05-01)"
   sodipodi:docname="facebook.svg">
  <defs
     id="defs2" />
  <sodipodi:namedview
     id="base"
     pagecolor="#ffffff"
     bordercolor="#666666"
     borderopacity="1.0"
     inkscape:pageopacity="0.0"
     inkscape:pageshadow="2"
     inkscape:zoom="0.35"
     inkscape:cx="130.37694"
     inkscape:cy="233.04374"
     inkscape:document-units="mm"
     inkscape:current-layer="layer1"
     inkscape:document-rotation="0"
     showgrid="false"
     inkscape:window-width="1424"
     inkscape:window-height="1030"
     inkscape:window-x="32"
     inkscape:window-y="0"
     inkscape:window-maximized="0" />
  <metadata
     id="metadata5">
    <rdf:RDF>
      <cc:Work
         rdf:about="">
        <dc:format>image/svg+xml</dc:format>
        <dc:type
           rdf:resource="http://purl.org/dc/dcmitype/StillImage" />
        <dc:title />
      </cc:Work>
    </rdf:RDF>
  </metadata>
  <g
     transform="translate(-71.248529,-86.601985)"
     inkscape:label="Layer 1"
     inkscape:groupmode="layer"
     id="layer1">
    <path
       style="fill:#000000;stroke-width:0.264583"
       d="M 92.679881,192.31429 V 162.68095 H 81.964191 71.248529 V 150.37783 138.0747 h 10.715662 10.71569 l 0.002,-9.72343 c 0.003,-13.0886 0.37588,-17.02103 2.09506,-22.09752 3.54489,-10.467534 11.055749,-16.813871 22.674589,-19.159002 4.39906,-0.887899 15.68627,-0.539476 24.37174,0.752327 l 1.92085,0.285708 v 10.418878 10.418879 h -6.19444 c -7.08359,0 -9.40435,0.31412 -11.99386,1.6234 -1.83156,0.92606 -3.93589,2.97312 -4.80249,4.6718 -1.30715,2.56221 -1.4245,3.58368 -1.54903,13.4824 l -0.11732,9.32656 h 11.7994 c 9.56622,0 11.7994,0.0658 11.7994,0.34747 0,0.39482 -3.36473,22.41435 -3.59572,23.53118 l -0.15049,0.7276 h -9.90085 -9.90085 v 29.63334 29.63333 H 105.90908 92.679881 Z"
       id="path847" />
  </g>
</svg>
