<?xml version="1.0" encoding="UTF-8" standalone="no"?>
<svg
   xmlns:dc="http://purl.org/dc/elements/1.1/"
   xmlns:cc="http://creativecommons.org/ns#"
   xmlns:rdf="http://www.w3.org/1999/02/22-rdf-syntax-ns#"
   xmlns:svg="http://www.w3.org/2000/svg"
   xmlns="http://www.w3.org/2000/svg"
   xmlns:sodipodi="http://sodipodi.sourceforge.net/DTD/sodipodi-0.dtd"
   xmlns:inkscape="http://www.inkscape.org/namespaces/inkscape"
   width="118.33149mm"
   height="118.26777mm"
   viewBox="0 0 118.33149 118.26777"
   version="1.1"
   id="svg8"
   inkscape:version="1.0 (4035a4fb49, 2020-05-01)"
   sodipodi:docname="instagram.svg">
  <defs
     id="defs2" />
  <sodipodi:namedview
     id="base"
     pagecolor="#ffffff"
     bordercolor="#666666"
     borderopacity="1.0"
     inkscape:pageopacity="0.0"
     inkscape:pageshadow="2"
     inkscape:zoom="0.35"
     inkscape:cx="220.83395"
     inkscape:cy="202.95796"
     inkscape:document-units="mm"
     inkscape:current-layer="layer1"
     inkscape:document-rotation="0"
     showgrid="false"
     inkscape:window-width="1424"
     inkscape:window-height="1030"
     inkscape:window-x="32"
     inkscape:window-y="0"
     inkscape:window-maximized="0" />
  <metadata
     id="metadata5">
    <rdf:RDF>
      <cc:Work
         rdf:about="">
        <dc:format>image/svg+xml</dc:format>
        <dc:type
           rdf:resource="http://purl.org/dc/dcmitype/StillImage" />
        <dc:title />
      </cc:Work>
    </rdf:RDF>
  </metadata>
  <g
     transform="translate(-47.315112,-94.562182)"
     inkscape:label="Layer 1"
     inkscape:groupmode="layer"
     id="layer1">
    <path
       style="fill:#000000;stroke-width:0.264583"
       d="m 86.572287,212.69903 c -8.14603,-0.29293 -11.43821,-0.689 -15.8396,-1.90558 -9.85597,-2.72428 -17.69746,-10.15494 -20.944735,-19.84741 -2.219649,-6.62521 -2.470806,-10.40967 -2.472826,-37.26095 -0.0017,-22.88085 0.150004,-26.99552 1.195756,-32.42776 2.317383,-12.03783 9.94577,-20.82043 21.213935,-24.423692 6.47047,-2.069078 9.73488,-2.271045 36.713223,-2.271455 23.04072,-3.4e-4 26.34063,0.11019 31.86468,1.067344 10.64128,1.843808 18.99378,8.031213 23.41609,17.346293 2.5397,5.34956 3.31136,9.66976 3.75054,20.99781 0.34756,8.96461 0.14718,41.81232 -0.28245,46.30208 -0.97641,10.2037 -3.71114,16.75152 -9.40407,22.51634 -5.93748,6.01246 -12.63964,8.75585 -23.54791,9.63888 -4.29378,0.34758 -37.956337,0.54523 -45.662633,0.2681 z m 40.740303,-10.60488 c 7.7555,-0.44921 12.48744,-1.3088 15.45521,-2.80753 4.93727,-2.49333 8.49414,-6.5493 10.2797,-11.72214 0.72909,-2.11219 1.48381,-7.16315 1.80004,-12.04675 0.34826,-5.37824 0.35082,-38.40323 0.003,-43.66076 -0.72144,-10.91694 -2.18058,-15.27944 -6.60163,-19.73736 -4.0809,-4.11494 -7.19972,-5.42442 -15.48522,-6.50169 -4.1992,-0.54598 -40.662695,-0.82642 -47.757243,-0.3673 -11.30088,0.73132 -16.274438,2.41076 -20.517787,6.9283 -5.915779,6.29805 -6.737298,11.3967 -6.7303,41.77075 0.0046,20.08459 0.380225,27.03124 1.751619,32.39615 1.544193,6.04091 6.201441,11.29227 11.969428,13.49634 3.0772,1.17586 8.79216,2.02806 15.776,2.35246 4.497491,0.20891 36.083113,0.12969 40.056793,-0.10047 z m -24.56333,-18.27876 c -3.944361,-0.45701 -8.00152,-1.86009 -11.789293,-4.07704 -16.96546,-9.9297 -19.94495,-33.4621 -6.00997,-47.46745 4.68729,-4.71097 10.44145,-7.64382 16.909833,-8.6188 16.63642,-2.50762 32.11195,8.87385 34.61121,25.45478 2.58127,17.12512 -9.44462,32.74856 -26.73201,34.72889 -2.70024,0.30932 -4.18141,0.305 -6.98977,-0.0204 z m 8.45128,-10.99218 c 6.88961,-1.68032 12.34635,-7.01933 14.33856,-14.0292 0.45321,-1.59465 0.58699,-2.76063 0.58619,-5.10892 -0.001,-3.69678 -0.43822,-5.53677 -2.13634,-8.99583 -1.03989,-2.11825 -1.61198,-2.89158 -3.63774,-4.91734 -2.02711,-2.02711 -2.79767,-2.59695 -4.91733,-3.63646 -2.97794,-1.46042 -4.89126,-1.98772 -7.9375,-2.18753 -11.932253,-0.78269 -22.097403,9.96279 -20.654093,21.83324 1.46102,12.01616 12.706326,19.88385 24.358253,17.04204 z m 24.35584,-44.18538 c -1.66888,-0.61209 -3.53141,-2.56383 -4.11054,-4.3074 -0.92617,-2.78845 -0.14266,-5.6471 2.08528,-7.60821 1.39201,-1.2253 2.67138,-1.66629 4.83411,-1.66629 4.68801,0 7.81541,4.55666 6.39082,9.31152 -0.39863,1.33053 -2.08967,3.25258 -3.49138,3.96835 -1.44924,0.74004 -4.12765,0.88176 -5.70829,0.30203 z"
       id="path879" />
  </g>
</svg>
