<?xml version="1.0" encoding="UTF-8" standalone="no"?>
<svg
   xmlns:dc="http://purl.org/dc/elements/1.1/"
   xmlns:cc="http://creativecommons.org/ns#"
   xmlns:rdf="http://www.w3.org/1999/02/22-rdf-syntax-ns#"
   xmlns:svg="http://www.w3.org/2000/svg"
   xmlns="http://www.w3.org/2000/svg"
   xmlns:sodipodi="http://sodipodi.sourceforge.net/DTD/sodipodi-0.dtd"
   xmlns:inkscape="http://www.inkscape.org/namespaces/inkscape"
   width="105.55714mm"
   height="145.79233mm"
   viewBox="0 0 105.55714 145.79233"
   version="1.1"
   id="svg8"
   inkscape:version="1.0 (4035a4fb49, 2020-05-01)"
   sodipodi:docname="pdf.svg">
  <defs
     id="defs2" />
  <sodipodi:namedview
     id="base"
     pagecolor="#ffffff"
     bordercolor="#666666"
     borderopacity="1.0"
     inkscape:pageopacity="0.0"
     inkscape:pageshadow="2"
     inkscape:zoom="0.35"
     inkscape:cx="205.69009"
     inkscape:cy="286.00849"
     inkscape:document-units="mm"
     inkscape:current-layer="layer1"
     inkscape:document-rotation="0"
     showgrid="false"
     inkscape:window-width="1424"
     inkscape:window-height="1030"
     inkscape:window-x="32"
     inkscape:window-y="0"
     inkscape:window-maximized="0" />
  <metadata
     id="metadata5">
    <rdf:RDF>
      <cc:Work
         rdf:about="">
        <dc:format>image/svg+xml</dc:format>
        <dc:type
           rdf:resource="http://purl.org/dc/dcmitype/StillImage" />
        <dc:title />
      </cc:Work>
    </rdf:RDF>
  </metadata>
  <g
     transform="translate(-51.321924,-72.588395)"
     inkscape:label="Layer 1"
     inkscape:groupmode="layer"
     id="layer1">
    <path
       style="fill:#000000;stroke-width:0.264583"
       d="m 55.077673,218.02257 c -1.335342,-0.48429 -2.714993,-1.72057 -3.260375,-2.92157 -0.480026,-1.05707 -0.495374,-3.21394 -0.495374,-69.61795 0,-66.095416 0.01736,-68.565306 0.489186,-69.604136 0.579544,-1.27599 2.173596,-2.6678 3.467943,-3.02795 1.224479,-0.340711 70.891677,-0.354454 71.786707,-0.0142 0.48947,0.18609 24.78193,27.563336 29.087,32.780606 l 0.7263,0.88019 -0.006,53.75627 c -0.006,51.72016 -0.0243,53.79706 -0.49499,54.83331 -0.5867,1.29174 -2.06493,2.57238 -3.44738,2.98657 -1.47306,0.44134 -96.632394,0.39157 -97.853198,-0.0512 z m 48.628407,-6.65608 c 11.43638,-0.83827 17.87441,-7.93445 17.39113,-19.16902 -0.21568,-5.01389 -1.68179,-8.47155 -4.79898,-11.31788 -4.23905,-3.8707 -10.69589,-5.16256 -21.491695,-4.29998 -1.87652,0.14994 -3.62022,0.33655 -3.87488,0.41471 -0.43466,0.13339 -0.46302,1.17737 -0.46302,17.04198 0,11.47631 0.0888,16.95478 0.27675,17.07093 0.36544,0.22585 7.65511,0.60298 9.512845,0.49214 0.80036,-0.0478 2.35189,-0.15255 3.44785,-0.23288 z m -5.299945,-17.32041 v -11.3651 l 0.95358,-0.17889 c 0.52447,-0.0984 2.042515,-0.11851 3.373445,-0.0447 6.60617,0.3663 10.0587,4.1283 10.03987,10.93981 -0.022,7.93965 -4.00806,12.00138 -11.7872,12.01085 l -2.579695,0.003 z m -29.89678,11.03436 0.001,-6.15156 3.10772,-0.0289 c 3.47233,-0.0323 5.61406,-0.48523 8.00807,-1.69373 2.80503,-1.41597 4.28969,-3.12769 5.2948,-6.10455 0.83256,-2.46583 0.66688,-6.35032 -0.36199,-8.48725 -1.96201,-4.07501 -5.57151,-5.91239 -12.21441,-6.21763 -3.10981,-0.14289 -10.456838,0.25509 -11.401562,0.61762 -0.314729,0.1208 -0.372321,2.77768 -0.372321,17.18022 v 17.03732 h 3.96875 3.968753 l 10e-4,-6.15157 z m 0.17525,-12.28107 c -0.097,-0.097 -0.17639,-2.49112 -0.17639,-5.32022 v -5.14384 l 2.99652,0.0951 c 2.76092,0.0876 3.085,0.15368 4.12182,0.83981 2.6832,1.77566 2.84797,6.05732 0.3151,8.18858 -0.46417,0.39058 -1.45522,0.89167 -2.20234,1.11354 -1.36498,0.40535 -4.72544,0.55627 -5.05471,0.22701 z m 65.440285,11.55347 v -6.87917 h 6.21771 6.2177 v -3.30729 -3.30729 h -6.22478 -6.22478 l 0.0732,-3.90261 0.0732,-3.9026 6.68073,-0.0707 6.68073,-0.0707 v -3.17045 -3.17046 h -10.58334 -10.58333 v 17.33021 17.33021 h 3.83646 3.83646 z m 17.19792,-64.29375 v -29.63334 h -12.85846 c -13.99137,0 -14.22207,-0.0229 -14.88613,-1.4804 -0.21391,-0.46947 -0.30125,-4.99172 -0.30125,-15.597666 V 78.411174 H 90.071765 56.866553 v 45.640626 45.64062 h 47.228127 47.22813 z m -84.293265,20.94875 c -2.415553,-1.52565 -3.0086,-4.13371 -1.785442,-7.85188 0.728916,-2.21576 5.514042,-6.53455 10.405122,-9.3911 l 1.7818,-1.04063 0.82416,-3.11851 c 1.08175,-4.09318 5.39168,-21.68276 6.15852,-25.13399 l 0.60011,-2.7009 -2.50492,-2.59077 c -4.12173,-4.26296 -5.79859,-7.28629 -5.79859,-10.454646 0,-3.68166 2.81042,-6.40299 6.61458,-6.40491 3.36357,-0.002 5.35096,1.99606 6.2618,6.29451 0.42178,1.990486 0.55584,8.049526 0.23045,10.415406 l -0.18207,1.32385 4.58397,4.18592 c 7.119945,6.50167 14.877265,13.02998 21.252725,17.88562 l 1.5875,1.20906 8.33438,0.15337 c 8.89354,0.16367 10.67686,0.37756 13.3495,1.60113 3.92814,1.79836 5.74842,5.61202 4.39405,9.20595 -0.80765,2.14317 -1.83608,3.42097 -3.47645,4.31941 -1.23439,0.67608 -1.71199,0.78518 -3.41919,0.78106 -1.19723,-0.003 -2.53662,-0.19227 -3.37659,-0.47743 -1.60199,-0.54386 -7.14823,-4.07146 -12.89528,-8.20185 l -3.96875,-2.85233 -3.06152,0.14892 c -9.26593,0.45074 -20.589275,2.75536 -28.044055,5.70778 -3.68391,1.45899 -3.83086,1.57152 -4.22414,3.23482 -2.0168,8.52965 -6.18356,13.79295 -11.20384,14.15229 -1.28969,0.0923 -1.78748,0.0106 -2.43783,-0.40015 z m 3.89951,-4.43887 c 0.89606,-0.45557 2.32526,-2.12448 3.20248,-3.73961 0.91195,-1.67907 1.82897,-4.03902 1.56946,-4.03902 -0.31118,0 -3.42901,2.52407 -4.99769,4.04593 -1.10049,1.06766 -1.43273,1.59659 -1.65559,2.63575 -0.15335,0.71502 -0.20838,1.414 -0.1223,1.55328 0.16915,0.27369 0.89117,0.10926 2.00364,-0.45633 z M 137.4516,145.2274 c 0.68629,-0.28675 1.06566,-0.69807 1.45441,-1.57691 0.91487,-2.06823 0.0107,-3.67559 -2.62144,-4.66041 -1.64926,-0.61707 -7.21072,-1.12193 -10.9522,-0.99422 l -2.31023,0.0788 4.94978,3.30207 c 4.51039,3.00895 6.79774,4.20644 8.0797,4.22992 0.25933,0.005 0.88932,-0.16593 1.39998,-0.3793 z m -51.174855,-6.24733 c 5.21763,-1.86932 12.83721,-3.50306 20.696045,-4.43751 l 3.67185,-0.4366 -3.67185,-2.94627 c -4.73344,-3.79808 -9.306095,-7.71853 -14.195425,-12.17072 -2.14993,-1.95772 -4.02517,-3.48767 -4.16718,-3.3999 -0.14202,0.0878 -0.25822,0.36379 -0.25822,0.61337 0,0.24959 -1.30968,5.73015 -2.91041,12.17902 -1.60073,6.44887 -2.91042,11.78678 -2.91042,11.86203 0,0.0752 0.20836,0.049 0.46302,-0.0582 0.25466,-0.10726 1.73183,-0.6496 3.28259,-1.20519 z m -0.84485,-39.266556 c -0.16844,-0.87127 -0.47546,-1.91134 -0.68227,-2.31127 -0.63081,-1.21985 -1.94336,-1.2192 -3.34297,0.002 -1.21587,1.06057 -0.0433,4.231826 2.67705,7.240286 l 1.49014,1.64795 0.0821,-2.49725 c 0.0452,-1.37349 -0.0557,-3.2101 -0.2241,-4.081366 z"
       id="path936" />
  </g>
</svg>
