<?xml version="1.0" encoding="UTF-8" standalone="no"?>
<svg
   xmlns:dc="http://purl.org/dc/elements/1.1/"
   xmlns:cc="http://creativecommons.org/ns#"
   xmlns:rdf="http://www.w3.org/1999/02/22-rdf-syntax-ns#"
   xmlns:svg="http://www.w3.org/2000/svg"
   xmlns="http://www.w3.org/2000/svg"
   xmlns:sodipodi="http://sodipodi.sourceforge.net/DTD/sodipodi-0.dtd"
   xmlns:inkscape="http://www.inkscape.org/namespaces/inkscape"
   width="135.41853mm"
   height="135.22389mm"
   viewBox="0 0 135.41853 135.22389"
   version="1.1"
   id="svg8"
   inkscape:version="1.0 (4035a4fb49, 2020-05-01)"
   sodipodi:docname="phone.svg">
  <defs
     id="defs2" />
  <sodipodi:namedview
     id="base"
     pagecolor="#ffffff"
     bordercolor="#666666"
     borderopacity="1.0"
     inkscape:pageopacity="0.0"
     inkscape:pageshadow="2"
     inkscape:zoom="0.35"
     inkscape:cx="258.73736"
     inkscape:cy="260.395"
     inkscape:document-units="mm"
     inkscape:current-layer="layer1"
     inkscape:document-rotation="0"
     showgrid="false"
     inkscape:window-width="1424"
     inkscape:window-height="1030"
     inkscape:window-x="32"
     inkscape:window-y="0"
     inkscape:window-maximized="0" />
  <metadata
     id="metadata5">
    <rdf:RDF>
      <cc:Work
         rdf:about="">
        <dc:format>image/svg+xml</dc:format>
        <dc:type
           rdf:resource="http://purl.org/dc/dcmitype/StillImage" />
        <dc:title />
      </cc:Work>
    </rdf:RDF>
  </metadata>
  <g
     transform="translate(-37.286502,-79.365297)"
     inkscape:label="Layer 1"
     inkscape:groupmode="layer"
     id="layer1">
    <path
       style="fill:#000000;stroke-width:0.264583"
       d="m 47.927386,214.38809 c -1.147426,-0.39473 -3.061192,-2.10054 -3.575253,-3.18675 -0.495005,-1.04595 -7.066553,-29.38478 -7.065631,-30.46949 0.0012,-1.45059 0.638513,-2.8901 1.840507,-4.15739 1.157013,-1.21987 1.796939,-1.52245 16.792919,-7.94055 10.449568,-4.47229 15.989996,-6.71079 16.802962,-6.7889 1.663301,-0.15983 3.280585,0.32799 4.428281,1.33568 0.770583,0.67658 4.69723,5.3898 14.041207,16.85391 0.05702,0.0699 1.455031,-0.5582 3.106692,-1.39591 15.80709,-8.01716 29.66866,-20.96084 39.16959,-36.57584 1.95269,-3.2093 4.69807,-8.52023 4.57272,-8.84595 -0.0442,-0.11473 -3.73373,-3.1975 -8.19908,-6.8506 -4.46534,-3.6531 -8.40944,-7.03111 -8.76465,-7.5067 -0.89816,-1.20252 -1.32347,-2.6929 -1.18048,-4.13668 0.0815,-0.82301 2.3008,-6.313 6.75252,-16.704048 7.00959,-16.36157 7.41565,-17.135608 9.51226,-18.132105 2.01371,-0.957096 2.58402,-0.872382 17.77192,2.639837 7.91189,1.829634 14.79088,3.519088 15.28664,3.754342 1.28505,0.609795 2.87585,2.529496 3.27372,3.950576 0.40678,1.45287 0.20267,8.42271 -0.4216,14.396568 -4.38701,41.98075 -29.81831,78.5409 -67.71361,97.34536 -13.023987,6.46278 -27.073012,10.51324 -41.848694,12.06534 -5.099291,0.53565 -13.459174,0.73589 -14.58294,0.3493 z"
       id="path952" />
  </g>
</svg>
