<?xml version="1.0" encoding="UTF-8" standalone="no"?>
<svg
   xmlns:dc="http://purl.org/dc/elements/1.1/"
   xmlns:cc="http://creativecommons.org/ns#"
   xmlns:rdf="http://www.w3.org/1999/02/22-rdf-syntax-ns#"
   xmlns:svg="http://www.w3.org/2000/svg"
   xmlns="http://www.w3.org/2000/svg"
   xmlns:sodipodi="http://sodipodi.sourceforge.net/DTD/sodipodi-0.dtd"
   xmlns:inkscape="http://www.inkscape.org/namespaces/inkscape"
   width="119.05975mm"
   height="119.35374mm"
   viewBox="0 0 119.05975 119.35374"
   version="1.1"
   id="svg8"
   inkscape:version="1.0 (4035a4fb49, 2020-05-01)"
   sodipodi:docname="whatsapp.svg">
  <defs
     id="defs2" />
  <sodipodi:namedview
     id="base"
     pagecolor="#ffffff"
     bordercolor="#666666"
     borderopacity="1.0"
     inkscape:pageopacity="0.0"
     inkscape:pageshadow="2"
     inkscape:zoom="0.35"
     inkscape:cx="228.60659"
     inkscape:cy="186.75967"
     inkscape:document-units="mm"
     inkscape:current-layer="layer1"
     inkscape:document-rotation="0"
     showgrid="false"
     inkscape:window-width="1424"
     inkscape:window-height="1030"
     inkscape:window-x="192"
     inkscape:window-y="0"
     inkscape:window-maximized="0" />
  <metadata
     id="metadata5">
    <rdf:RDF>
      <cc:Work
         rdf:about="">
        <dc:format>image/svg+xml</dc:format>
        <dc:type
           rdf:resource="http://purl.org/dc/dcmitype/StillImage" />
        <dc:title />
      </cc:Work>
    </rdf:RDF>
  </metadata>
  <g
     transform="translate(-45.347841,-98.753171)"
     inkscape:label="Layer 1"
     inkscape:groupmode="layer"
     id="layer1">
    <path
       style="fill:#000000;stroke-width:0.451472"
       d="m 99.285723,217.86563 c -25.858039,-2.59155 -46.512857,-20.57325 -52.867104,-46.02509 -0.952422,-3.81491 -1.070778,-5.31199 -1.070778,-13.54417 0,-8.23218 0.118356,-9.72925 1.070778,-13.54416 2.849076,-11.41194 8.020608,-20.65347 16.051903,-28.68478 8.612364,-8.61237 18.627176,-13.94498 30.942087,-16.475777 4.150974,-0.853054 5.750984,-0.946884 12.866931,-0.754594 11.0413,0.298357 16.89603,1.761551 26.1468,6.534561 19.51366,10.06822 31.98125,30.70044 31.98125,52.92475 0,22.32216 -12.39892,42.81297 -32.04615,52.96038 -10.03845,5.18467 -22.48062,7.67074 -33.075717,6.60888 z M 87.93248,185.39288 c 0.338107,-0.005 2.47131,0.68569 4.740451,1.53376 17.511579,6.54472 36.263779,-0.93972 44.141149,-17.61777 2.28381,-4.8353 3.12582,-8.68823 3.13755,-14.35693 0.0207,-10.00613 -3.59252,-18.43117 -10.78698,-25.15224 -7.22575,-6.75029 -15.34185,-9.7227 -25.3682,-9.29078 -9.346617,0.40264 -16.18065,3.39649 -22.845841,10.0083 -6.111114,6.06216 -9.064813,11.9995 -10.138087,20.37892 -0.838387,6.54555 0.642042,14.49905 3.741959,20.10339 l 0.908284,1.64208 -2.989076,8.96779 c -1.643988,4.93227 -2.989071,9.09847 -2.989071,9.25821 0,0.15975 4.012453,-1.00488 8.916563,-2.58805 4.904109,-1.58317 9.193192,-2.88218 9.531299,-2.88668 z m 9.994843,-2.52562 c -1.3657,-0.35867 -3.946727,-1.36762 -5.735611,-2.24211 l -3.252518,-1.58997 -5.438308,1.77364 c -2.991072,0.9755 -5.438309,1.70641 -5.438309,1.62424 0,-0.0822 0.815068,-2.47047 1.811263,-5.30733 l 1.811263,-5.15794 -1.601925,-2.65959 c -2.374641,-3.9425 -3.446086,-7.77862 -3.707714,-13.27483 -0.271497,-5.70356 0.409381,-8.91345 3.015423,-14.21573 3.31353,-6.74175 9.531359,-12.09441 16.859442,-14.51357 3.191314,-1.05353 4.464301,-1.22571 9.126271,-1.23442 4.77042,-0.009 5.84863,0.13959 9.0251,1.24296 11.67278,4.05466 19.25919,13.85087 19.97141,25.78877 0.18046,3.02476 0.0384,5.08168 -0.52641,7.62026 -2.38386,10.715 -10.80965,19.47216 -21.31172,22.14989 -3.47669,0.88645 -11.22472,0.88419 -14.607657,-0.004 z m 21.944617,-13.43561 c 1.96496,-1.31131 2.64501,-2.39206 3.12919,-4.97298 l 0.29888,-1.59317 -4.09936,-2.05883 c -2.25465,-1.13236 -4.36642,-2.05883 -4.69282,-2.05883 -0.32641,0 -1.36813,1.01582 -2.31495,2.25737 -0.94681,1.24154 -1.91558,2.25736 -2.15281,2.25736 -0.23723,0 -1.57973,-0.5587 -2.98333,-1.24155 -3.02161,-1.47001 -7.587057,-5.59011 -9.019467,-8.13963 l -1.018725,-1.81321 1.583065,-1.89482 c 0.87069,-1.04214 1.583067,-2.03412 1.583067,-2.2044 0,-0.54668 -3.195794,-7.90746 -3.693514,-8.50718 -0.826035,-0.99531 -3.337557,-0.68238 -4.869599,0.60676 -2.980935,2.50829 -3.970399,6.83087 -2.510674,10.96817 1.620196,4.59214 9.15358,13.27137 13.932967,16.05222 1.20008,0.69826 3.84119,1.85791 5.86913,2.577 4.7601,1.6879 8.18844,1.61461 10.95895,-0.23428 z"
       id="path863" />
  </g>
</svg>
